<?xml version="1.0" encoding="UTF-8"?>
<svg xmlns="http://www.w3.org/2000/svg" xmlns:xlink="http://www.w3.org/1999/xlink" width="250px" height="188px" viewBox="0 0 250 188" version="1.1">
<g id="surface1">
<path style=" stroke:none;fill-rule:nonzero;fill:rgb(0%,0%,0%);fill-opacity:1;" d="M 116.167969 45.996094 C 115.167969 46.414062 113.167969 46.917969 111.667969 47.082031 C 103.5 48.421875 92.25 57.539062 87.082031 66.988281 C 82.082031 76.355469 80.417969 89.734375 83.167969 99.101562 C 85.667969 107.464844 91.417969 115.578125 99.417969 122.015625 L 105 126.53125 L 105 135.0625 C 105 142.253906 105.25 143.761719 106.5 144.929688 C 107.332031 145.765625 108.75 146.351562 109.582031 146.351562 C 111.25 146.351562 117.332031 143.007812 133.167969 133.472656 C 137.417969 130.878906 141.082031 128.789062 141.332031 128.789062 C 142.582031 128.789062 151.667969 122.265625 155 118.839844 C 162.5 111.226562 168.332031 97.679688 168.332031 87.8125 C 168.332031 68.492188 156.167969 52.519531 136.667969 46.332031 C 132.667969 45.078125 119.25 44.910156 116.167969 45.996094 Z M 134.917969 48.085938 C 145.582031 50.929688 156.167969 59.042969 161 68.242188 C 166 77.523438 167.332031 91.492188 164.25 100.605469 C 159.667969 113.902344 154.667969 118.585938 129.25 133.222656 C 118.25 139.578125 108.832031 144.597656 108.332031 144.261719 C 107 143.425781 107.25 124.273438 108.667969 120.929688 C 109.25 119.421875 111.25 117 113 115.492188 C 115.75 113.152344 115.917969 112.816406 114.167969 113.320312 C 110.75 114.320312 107.5 117.917969 107 121.429688 C 106.667969 123.1875 106.167969 124.609375 105.832031 124.609375 C 105.5 124.609375 103.25 123.1875 100.75 121.347656 C 95.417969 117.5 91.5 112.734375 88.25 106.292969 C 78.5 86.640625 86.332031 62.136719 105.917969 51.433594 C 114 47 125.832031 45.660156 134.917969 48.085938 Z M 134.917969 48.085938 "/>
<path style=" stroke:none;fill-rule:nonzero;fill:rgb(0%,0%,0%);fill-opacity:1;" d="M 109.082031 52.4375 C 108.332031 53.273438 107.832031 56.449219 107.75 61.382812 C 107.5 69.746094 108.75 69.160156 109.417969 60.546875 C 109.667969 57.789062 110.25 54.609375 110.75 53.273438 C 111.75 50.761719 110.832031 50.261719 109.082031 52.4375 Z M 109.082031 52.4375 "/>
<path style=" stroke:none;fill-rule:nonzero;fill:rgb(0%,0%,0%);fill-opacity:1;" d="M 110.332031 68.074219 L 107.5 70.917969 L 107.5 86.976562 C 107.5 104.789062 108.167969 107.714844 112.582031 109.972656 C 117 112.316406 119.332031 111.5625 133.082031 103.617188 C 148.167969 94.921875 150 93.332031 150 88.648438 C 150 82.792969 149 81.789062 134.332031 73.261719 C 122.582031 66.402344 119.917969 65.230469 116.832031 65.230469 C 113.75 65.230469 112.667969 65.734375 110.332031 68.074219 Z M 129.5 72.925781 C 135.082031 76.269531 140.582031 79.53125 141.75 80.285156 C 145.75 82.625 146.417969 83.210938 147.417969 85.050781 C 149 88.144531 148.417969 90.402344 145.332031 93.332031 C 143.75 94.921875 142 96.175781 141.5 96.175781 C 141.082031 96.175781 139.667969 96.84375 138.5 97.761719 C 136.332031 99.269531 133.417969 100.941406 122.917969 106.710938 C 117.332031 109.722656 114.582031 109.722656 111.832031 106.710938 C 109.917969 104.703125 109.832031 103.535156 109.917969 84.382812 C 110 71.753906 110.082031 71.253906 112.082031 69.078125 C 115.417969 65.480469 118.082031 66.066406 129.5 72.925781 Z M 129.5 72.925781 "/>
<path style=" stroke:none;fill-rule:nonzero;fill:rgb(0%,0%,0%);fill-opacity:1;" d="M 152.167969 84.632812 C 152.582031 85.554688 161.75 92.746094 163.582031 93.5 C 163.917969 93.664062 163.75 92.828125 163.25 91.660156 C 162.667969 90.488281 160 88.230469 157.332031 86.558594 C 151.832031 83.296875 151.5 83.210938 152.167969 84.632812 Z M 152.167969 84.632812 "/>
</g>
</svg>
